<svg xmlns="http://www.w3.org/2000/svg" xmlns:xlink="http://www.w3.org/1999/xlink" width="245.577" height="77.8" version="1.1" viewBox="0 0 245.577 77.8"><defs><path id="path_1" d="M4.999 1.3757L39.001 1.3757Q39.1237 1.3757 39.2463 1.38172Q39.3689 1.38775 39.491 1.39977Q39.6131 1.4118 39.7345 1.42981Q39.8559 1.44781 39.9762 1.47176Q40.0966 1.4957 40.2157 1.52552Q40.3347 1.55533 40.4521 1.59096Q40.5696 1.62658 40.6851 1.66792Q40.8006 1.70927 40.914 1.75623Q41.0274 1.80319 41.1383 1.85566Q41.2493 1.90813 41.3575 1.96598Q41.4657 2.02383 41.571 2.08692Q41.6763 2.15001 41.7783 2.21819Q41.8803 2.28636 41.9789 2.35947Q42.0775 2.43257 42.1723 2.51042Q42.2672 2.58827 42.3581 2.67069Q42.4491 2.7531 42.5358 2.83987Q42.6226 2.92665 42.705 3.01758Q42.7874 3.10851 42.8653 3.20337Q42.9431 3.29823 43.0162 3.3968Q43.0893 3.49537 43.1575 3.59741Q43.2257 3.69944 43.2888 3.8047Q43.3519 3.90996 43.4097 4.01819Q43.4676 4.12642 43.52 4.23735Q43.5725 4.34829 43.6195 4.46167Q43.6664 4.57504 43.7078 4.69059Q43.7491 4.80613 43.7847 4.92357Q43.8204 5.041 43.8502 5.16004Q43.88 5.27908 43.9039 5.39944Q43.9279 5.51981 43.9459 5.6412Q43.9639 5.76259 43.9759 5.88471Q43.988 6.00684 43.994 6.12941Q44 6.25198 44 6.3747L44 40.3767Q44 40.4994 43.994 40.622Q43.988 40.7446 43.9759 40.8667Q43.9639 40.9888 43.9459 41.1102Q43.9279 41.2316 43.9039 41.352Q43.88 41.4723 43.8502 41.5914Q43.8204 41.7104 43.7847 41.8278Q43.7491 41.9453 43.7078 42.0608Q43.6664 42.1764 43.6195 42.2897Q43.5725 42.4031 43.52 42.514Q43.4676 42.625 43.4097 42.7332Q43.3519 42.8414 43.2888 42.9467Q43.2257 43.052 43.1575 43.154Q43.0893 43.256 43.0162 43.3546Q42.9431 43.4532 42.8653 43.548Q42.7874 43.6429 42.705 43.7338Q42.6226 43.8247 42.5358 43.9115Q42.4491 43.9983 42.3581 44.0807Q42.2672 44.1631 42.1723 44.241Q42.0775 44.3188 41.9789 44.3919Q41.8803 44.465 41.7783 44.5332Q41.6763 44.6014 41.571 44.6645Q41.4657 44.7276 41.3575 44.7854Q41.2493 44.8433 41.1383 44.8957Q41.0274 44.9482 40.914 44.9952Q40.8006 45.0421 40.6851 45.0835Q40.5696 45.1248 40.4521 45.1604Q40.3347 45.1961 40.2157 45.2259Q40.0966 45.2557 39.9762 45.2796Q39.8559 45.3036 39.7345 45.3216Q39.6131 45.3396 39.491 45.3516Q39.3689 45.3637 39.2463 45.3697Q39.1237 45.3757 39.001 45.3757L4.999 45.3757Q4.87628 45.3757 4.75371 45.3697Q4.63114 45.3637 4.50901 45.3516Q4.38688 45.3396 4.26549 45.3216Q4.1441 45.3036 4.02374 45.2796Q3.90338 45.2557 3.78434 45.2259Q3.6653 45.1961 3.54787 45.1604Q3.43043 45.1248 3.31489 45.0835Q3.19934 45.0421 3.08597 44.9952Q2.97259 44.9482 2.86165 44.8957Q2.75072 44.8433 2.64249 44.7854Q2.53426 44.7276 2.429 44.6645Q2.32374 44.6014 2.2217 44.5332Q2.11967 44.465 2.0211 44.3919Q1.92253 44.3188 1.82767 44.241Q1.73281 44.1631 1.64188 44.0807Q1.55095 43.9983 1.46417 43.9115Q1.3774 43.8247 1.29499 43.7338Q1.21257 43.6429 1.13472 43.548Q1.05687 43.4532 0.983765 43.3546Q0.910662 43.256 0.842483 43.154Q0.774305 43.052 0.711215 42.9467Q0.648125 42.8414 0.590276 42.7332Q0.532426 42.625 0.479957 42.514Q0.427489 42.4031 0.380526 42.2897Q0.333564 42.1764 0.292221 42.0608Q0.250879 41.9453 0.215255 41.8278Q0.179632 41.7104 0.149814 41.5914Q0.119996 41.4723 0.0960544 41.352Q0.0721132 41.2316 0.0541066 41.1102Q0.0361001 40.9888 0.0240715 40.8667Q0.012043 40.7446 0.00602151 40.622Q0 40.4994 0 40.3767L0 6.3747Q0 6.25198 0.00602151 6.12941Q0.012043 6.00684 0.0240715 5.88471Q0.0361001 5.76259 0.0541066 5.6412Q0.0721132 5.51981 0.0960544 5.39944Q0.119996 5.27908 0.149814 5.16004Q0.179632 5.041 0.215255 4.92357Q0.250879 4.80613 0.292221 4.69059Q0.333564 4.57504 0.380526 4.46167Q0.427489 4.34829 0.479957 4.23735Q0.532426 4.12642 0.590276 4.01819Q0.648125 3.90996 0.711215 3.8047Q0.774305 3.69944 0.842483 3.59741Q0.910662 3.49537 0.983765 3.3968Q1.05687 3.29823 1.13472 3.20337Q1.21257 3.10851 1.29499 3.01758Q1.3774 2.92665 1.46417 2.83987Q1.55095 2.7531 1.64188 2.67069Q1.73281 2.58827 1.82767 2.51042Q1.92253 2.43257 2.0211 2.35947Q2.11967 2.28636 2.2217 2.21818Q2.32374 2.15001 2.429 2.08692Q2.53426 2.02383 2.64249 1.96598Q2.75072 1.90813 2.86165 1.85566Q2.97259 1.80319 3.08597 1.75623Q3.19934 1.70927 3.31489 1.66792Q3.43043 1.62658 3.54787 1.59096Q3.6653 1.55533 3.78434 1.52552Q3.90338 1.4957 4.02374 1.47176Q4.1441 1.44781 4.26549 1.42981Q4.38688 1.4118 4.50901 1.39977Q4.63114 1.38775 4.75371 1.38172Q4.87628 1.3757 4.999 1.3757Z"/><path id="path_2" d="M3 25.3757L15 25.3757L15 33.3757L3 33.3757L3 25.3757Z"/><path id="path_3" d="M16 25.3757L28 25.3757L28 33.3757L16 33.3757L16 25.3757Z"/><path id="path_4" d="M29 25.3757L41 25.3757L41 33.3757L29 33.3757L29 25.3757Z"/><path id="path_5" d="M3 34.3757L15 34.3757L15 42.3757L3 42.3757L3 34.3757Z"/><path id="path_6" d="M16 34.3757L28 34.3757L28 42.3757L16 42.3757L16 34.3757Z"/><path id="path_7" d="M29 34.3757L41 34.3757L41 42.3757L29 42.3757L29 34.3757Z"/><path id="path_8" d="M3 5.3757L41 5.3757L41 16.3757L3 16.3757L3 5.3757Z"/><clipPath id="clip_1"><use xlink:href="#path_1"/></clipPath><clipPath id="clip_2"><use xlink:href="#path_2"/></clipPath><clipPath id="clip_3"><use xlink:href="#path_3"/></clipPath><clipPath id="clip_4"><use xlink:href="#path_4"/></clipPath><clipPath id="clip_5"><use xlink:href="#path_5"/></clipPath><clipPath id="clip_6"><use xlink:href="#path_6"/></clipPath><clipPath id="clip_7"><use xlink:href="#path_7"/></clipPath><clipPath id="clip_8"><use xlink:href="#path_8"/></clipPath></defs><g id="Logo-V2"><g id="appareil" transform="translate(80.00008 0)"><g id="background"><use fill="#4CD10E" fill-rule="evenodd" stroke="none" xlink:href="#path_1"/><g clip-path="url(#clip_1)"><use fill="none" stroke="#000" stroke-width="2" xlink:href="#path_1"/></g></g><g id="btn-01"><use fill="#4CD10E" fill-rule="evenodd" stroke="none" xlink:href="#path_2"/><g clip-path="url(#clip_2)"><use fill="none" stroke="#000" stroke-width="2" xlink:href="#path_2"/></g></g><g id="btn-02"><use fill="#4CD10E" fill-rule="evenodd" stroke="none" xlink:href="#path_3"/><g clip-path="url(#clip_3)"><use fill="none" stroke="#000" stroke-width="2" xlink:href="#path_3"/></g></g><g id="btn-03"><use fill="#4CD10E" fill-rule="evenodd" stroke="none" xlink:href="#path_4"/><g clip-path="url(#clip_4)"><use fill="none" stroke="#000" stroke-width="2" xlink:href="#path_4"/></g></g><g id="btn-04"><use fill="#4CD10E" fill-rule="evenodd" stroke="none" xlink:href="#path_5"/><g clip-path="url(#clip_5)"><use fill="none" stroke="#000" stroke-width="2" xlink:href="#path_5"/></g></g><g id="btn-05"><use fill="#4CD10E" fill-rule="evenodd" stroke="none" xlink:href="#path_6"/><g clip-path="url(#clip_6)"><use fill="none" stroke="#000" stroke-width="2" xlink:href="#path_6"/></g></g><g id="btn-06"><use fill="#4CD10E" fill-rule="evenodd" stroke="none" xlink:href="#path_7"/><g clip-path="url(#clip_7)"><use fill="none" stroke="#000" stroke-width="2" xlink:href="#path_7"/></g></g><g id="cadrant"><use fill="#4CD10E" fill-rule="evenodd" stroke="none" xlink:href="#path_8"/><g clip-path="url(#clip_8)"><use fill="none" stroke="#000" stroke-width="2" xlink:href="#path_8"/></g></g><path id="plume" fill="#000" fill-rule="evenodd" stroke="none" d="M19.5 24.9868L23.6389 19.4869C23.6389 19.4869 23.0468 16.958 24 15.9868C25.1634 14.6936 42.0001 0.486832 42.0001 0.486832C42.0001 0.486832 44.2363 -0.608573 46.382 0.486882C48.5277 1.58234 47.5 4.48677 47.5 4.48677C47.5 4.48677 30.2072 19.9972 29 20.9869C27.7928 21.9767 24.9411 21.4868 24.9411 21.4868C24.9411 21.4868 21.8603 24.1118 20.5 24.9868C19.1398 25.8619 19.5 24.9868 19.5 24.9868Z"/></g><path id="Text" fill="#00B0F0" fill-rule="evenodd" stroke="none" d="M0 77.3489L6.92139 77.3489L9.1875 70.3865L20.2105 70.3865L22.4766 77.3489L29.3979 77.3489L18.8672 46.8025L10.5513 46.8025L0 77.3489ZM36.681 76.3748Q38.783 77.718 41.3978 77.718Q43.2435 77.718 44.5355 77.113C45.3968 76.7029 46.1009 76.1868 46.6478 75.5647Q47.4681 74.6316 47.8987 73.678L48.1653 73.678L48.1653 77.3489L54.4305 77.3489L54.4305 46.8025L48.0936 46.8025L48.0936 58.2869L47.8987 58.2869C47.6185 57.658 47.2117 57.0256 46.6785 56.3899C46.1453 55.7542 45.4481 55.2209 44.5867 54.7903Q43.305 54.1443 41.3773 54.1443Q38.8753 54.1443 36.763 55.4465Q34.6507 56.7488 33.369 59.3738Q32.0975 61.9885 32.0975 65.926Q32.0975 69.761 33.3382 72.3962Q34.5789 75.0212 36.681 76.3748ZM133.934 77.3489L140.856 77.3489L143.122 70.3865L154.145 70.3865L156.411 77.3489L163.332 77.3489L152.802 46.8025L144.486 46.8025L133.934 77.3489ZM179.075 59.2097L179.075 54.4417L174.758 54.4417L174.758 48.9558L168.411 48.9558L168.411 54.4417L165.273 54.4417L165.273 59.2097L168.411 59.2097L168.411 71.1453Q168.39 74.5188 170.482 76.1697Q172.584 77.8103 176.04 77.6667Q177.28 77.6155 178.142 77.4104Q179.013 77.2156 179.485 77.0618L178.49 72.3347Q178.255 72.386 177.803 72.468C177.503 72.5227 177.205 72.55 176.911 72.55Q175.958 72.55 175.353 72.0886C174.956 71.7742 174.758 71.1794 174.758 70.3044L174.758 59.2097L179.075 59.2097ZM220.493 59.2097L220.493 54.4417L216.176 54.4417L216.176 48.9558L209.829 48.9558L209.829 54.4417L206.691 54.4417L206.691 59.2097L209.829 59.2097L209.829 71.1453Q209.809 74.5188 211.9 76.1697Q214.002 77.8103 217.458 77.6667Q218.699 77.6155 219.56 77.4104Q220.432 77.2156 220.903 77.0618L219.909 72.3347Q219.673 72.386 219.222 72.468C218.921 72.5227 218.624 72.55 218.33 72.55Q217.376 72.55 216.771 72.0886C216.375 71.7742 216.176 71.1794 216.176 70.3044L216.176 59.2097L220.493 59.2097ZM18.5903 65.3416L10.8281 65.3416L14.5913 53.7854L14.8271 53.7854L18.5903 65.3416ZM152.525 65.3416L144.763 65.3416L148.526 53.7854L148.762 53.7854L152.525 65.3416ZM59.631 54.4417L59.631 77.3489L65.9885 77.3489L65.9885 63.5984Q65.9885 61.6912 67.0549 60.5325Q68.1315 59.3738 69.7209 59.3738Q71.2795 59.3738 72.2433 60.3787Q73.2072 61.3733 73.2072 63.0652L73.2072 77.3489L79.3698 77.3489L79.3698 63.3625Q79.3698 61.5886 80.3337 60.4812Q81.3078 59.3738 83.0305 59.3738Q84.5583 59.3738 85.5734 60.3274Q86.5886 61.281 86.5886 63.1985L86.5886 77.3489L92.9255 77.3489L92.9255 61.9373Q92.9255 58.2151 90.9157 56.1848Q88.9162 54.1443 85.7067 54.1443Q83.1843 54.1443 81.3386 55.3337Q79.5031 56.5129 78.7956 58.4817L78.5598 58.4817Q78.006 56.4822 76.3449 55.3132Q74.694 54.1443 72.3459 54.1443Q70.0285 54.1443 68.3469 55.303Q66.6755 56.4514 65.9577 58.4817L65.6911 58.4817L65.6911 54.4417L59.631 54.4417ZM115.714 77.3489L115.714 64.1008Q115.725 61.886 116.924 60.6555Q118.134 59.425 120.052 59.425Q121.959 59.425 123.046 60.6145Q124.143 61.7937 124.122 63.8958L124.122 77.3489L130.48 77.3489L130.48 62.7576Q130.48 58.7483 128.316 56.4514Q126.153 54.1443 122.574 54.1443Q120.021 54.1443 118.237 55.3132Q116.463 56.4822 115.683 58.4817L115.417 58.4817L115.417 54.4417L109.357 54.4417L109.357 77.3489L115.714 77.3489ZM187.568 76.3645Q190.121 77.8 193.638 77.8Q197.894 77.8 200.621 75.8928Q203.349 73.9753 204.025 70.7864L198.15 70.3967Q197.668 71.7092 196.499 72.386Q195.34 73.0525 193.751 73.0525Q191.362 73.0525 189.957 71.5759Q188.552 70.0994 188.552 67.5359L188.552 67.5154L204.159 67.5154L204.159 65.7722Q204.159 61.886 202.723 59.302Q201.298 56.7078 198.857 55.426Q196.417 54.1443 193.392 54.1443Q190.019 54.1443 187.517 55.6414Q185.025 57.1282 183.651 59.7942Q182.277 62.4602 182.277 65.9978Q182.277 69.6277 183.651 72.2732Q185.025 74.9187 187.568 76.3645ZM228.986 76.3645Q231.539 77.8 235.057 77.8Q239.312 77.8 242.039 75.8928Q244.767 73.9753 245.444 70.7864L239.568 70.3967Q239.086 71.7092 237.917 72.386Q236.759 73.0525 235.169 73.0525Q232.78 73.0525 231.375 71.5759Q229.971 70.0994 229.971 67.5359L229.971 67.5154L245.577 67.5154L245.577 65.7722Q245.577 61.886 244.141 59.302Q242.716 56.7078 240.276 55.426Q237.835 54.1443 234.81 54.1443Q231.437 54.1443 228.935 55.6414Q226.443 57.1282 225.069 59.7942Q223.695 62.4602 223.695 65.9978Q223.695 69.6277 225.069 72.2732Q226.443 74.9187 228.986 76.3645ZM97.9321 54.4417L97.9321 77.3489L104.29 77.3489L104.29 54.4417L97.9321 54.4417ZM198.181 63.5779L188.552 63.5779Q188.665 61.6296 190.019 60.2556Q191.372 58.8816 193.495 58.8816Q195.566 58.8816 196.858 60.2146Q198.16 61.5374 198.181 63.5779ZM239.599 63.5779L229.971 63.5779Q230.083 61.6296 231.437 60.2556Q232.79 58.8816 234.913 58.8816Q236.984 58.8816 238.276 60.2146Q239.578 61.5374 239.599 63.5779ZM46.9656 70.8069Q45.7044 72.6628 43.4075 72.6628Q41.0696 72.6628 39.8289 70.7761Q38.5882 68.8894 38.5882 65.8953Q38.5882 62.9114 39.8187 61.0554Q41.0491 59.1995 43.4075 59.1995Q45.7147 59.1995 46.9656 61.0144Q48.2269 62.8191 48.2269 65.8953Q48.2269 68.9509 46.9656 70.8069Z"/></g></svg>