<svg xmlns="http://www.w3.org/2000/svg" xmlns:xlink="http://www.w3.org/1999/xlink" width="373" height="264" version="1.1" viewBox="0 0 373 264"><defs><path id="path_1" d="M0 0L373 0L373 264L0 264L0 0Z"/><path id="path_2" d="M0 0L178.785 0L178.785 169.819L0 169.819L0 0Z"/><clipPath id="mask_1"><use xlink:href="#path_1"/></clipPath><clipPath id="mask_2"><use xlink:href="#path_2"/></clipPath></defs><g id="man_transferring_data"><path id="Arrière-plan" fill="#FFF" fill-opacity="0" fill-rule="evenodd" stroke="none" d="M0 0L373 0L373 264L0 264L0 0Z"/><path id="Forme" fill="#CDBFDE" fill-opacity=".15" fill-rule="evenodd" stroke="none" d="M277.052 242.989C254.935 258.481 226.092 269.491 199.441 260.125C174.882 251.458 161.382 226.55 139.613 213.499C111.468 196.661 75.4021 203.087 44.6165 192.128C31.6148 187.495 19.5098 179.575 11.1908 168.416C2.8717 157.258 -1.41237 142.712 0.978738 128.913C4.51559 108.539 21.6519 91.7513 21.7017 71.0284C21.7515 61.5137 18.0154 52.2482 18.2147 42.6837C18.663 21.8612 38.1406 5.62152 58.2658 1.88541C80.7323 -2.29903 111.319 3.42967 131.294 14.5384C151.868 25.946 174.434 36.6561 198.445 34.9624C219.765 33.468 239.891 22.3095 261.211 22.9571C275.159 23.4054 288.46 28.885 300.665 35.6598C311.474 41.6874 322.085 49.2095 328.212 60.0691C340.168 81.4397 331.55 108.34 335.236 132.649C337.528 147.644 344.552 162.887 340.018 177.333C337.328 185.852 331.002 192.626 324.825 199.052C311.176 213.299 297.476 227.547 281.835 239.502C280.29 240.698 278.696 241.843 277.052 242.989L277.052 242.989L277.052 242.989Z"/><path id="Forme" fill="#A5A4A4" fill-rule="evenodd" stroke="#000" stroke-width="1" d="M179.216 261.321L81.3301 261.321C73.2601 261.321 66.4852 256.24 65.738 249.564L52.2382 129.212C51.3914 121.64 58.6145 115.114 67.8302 115.114L187.734 115.114C196.751 115.114 203.924 121.391 203.376 128.813L194.808 249.166C194.36 255.941 187.535 261.321 179.216 261.321L179.216 261.321L179.216 261.321Z"/><g id="Groupe-de-masques" transform="translate(57.1201 91.502)"><path id="Rectangle" fill="none" fill-rule="evenodd" stroke="none" d="M0 0L178.785 0L178.785 169.819L0 169.819L0 0Z"/><g clip-path="url(#mask_2)"><g id="Group"><g id="Groupe-de-masques"><path id="Rectangle" fill="none" fill-rule="evenodd" stroke="none" d="M0 0L178.785 0L178.785 169.819L0 169.819L0 0Z"/><g clip-path="url(#mask_2)"><g id="Group" transform="translate(6.5813026 8.171745)"><path id="Forme" fill="#FFF" fill-rule="evenodd" stroke="#000" stroke-linecap="round" stroke-linejoin="round" stroke-width="1" d="M46.7706 19.0263C46.7706 19.0263 90.5576 16.6853 93.1976 20.6213C95.8376 24.5563 90.0596 164.386 90.0596 164.386L57.1316 164.386L46.7706 19.0263L46.7706 19.0263L46.7706 19.0263Z"/><path id="Forme" fill="#3A3A3A" fill-rule="evenodd" stroke="#000" stroke-linecap="round" stroke-linejoin="round" stroke-width="1" d="M24.4036 159.355L24.4036 168.62C24.4036 168.62 107.346 169.716 111.331 167.226C115.316 164.685 112.925 159.355 112.925 159.355L24.4036 159.355L24.4036 159.355L24.4036 159.355Z"/><path id="Forme" fill="#406946" fill-rule="evenodd" stroke="#000" stroke-linecap="round" stroke-linejoin="round" stroke-width="1" d="M76.9086 14.6433C76.9086 14.6433 73.9196 203.59 78.3026 210.315C82.6866 217.04 111.629 210.315 116.611 201.897C121.592 193.478 112.974 120.151 112.974 120.151L114.967 26.9973C114.967 26.9973 78.0036 13.4473 76.9086 14.6433L76.9086 14.6433L76.9086 14.6433Z"/><path id="Forme" fill="#FFF" fill-rule="evenodd" stroke="#000" stroke-linecap="round" stroke-linejoin="round" stroke-width="1" d="M52.2496 5.47726C52.2496 5.47726 51.8516 15.5403 50.4566 18.3793C50.4566 18.3793 68.0906 40.0983 80.4446 14.6433C80.4446 14.6433 76.9576 13.0993 76.4596 4.38126C75.8626 -6.07974 52.2496 5.47726 52.2496 5.47726L52.2496 5.47726L52.2496 5.47726Z"/><path id="Forme" fill="#406946" fill-rule="evenodd" stroke="none" d="M37.5046 19.1763C37.5046 19.1763 45.1766 12.5513 47.6666 11.2063C50.1576 9.86126 54.5916 26.9973 54.5916 26.9973C54.5916 26.9973 63.8066 206.38 61.0176 212.557C58.2276 218.734 12.946 210.316 9.4091 203.591C5.8723 196.866 11.3519 126.278 11.3519 126.278"/><path id="Forme" fill="none" stroke="#000" stroke-linecap="round" stroke-linejoin="round" stroke-width="1" d="M37.5046 19.1763C37.5046 19.1763 45.1766 12.5513 47.6666 11.2063C50.1576 9.86126 54.5916 26.9973 54.5916 26.9973C54.5916 26.9973 63.8066 206.38 61.0176 212.557C58.2276 218.734 12.946 210.316 9.4091 203.591C5.8723 196.866 11.3519 126.278 11.3519 126.278"/><path id="Forme" fill="#EEDBEB" fill-rule="evenodd" stroke="none" d="M63.1596 37.4083L55.4376 143.863L67.6426 166.379L78.6516 143.016L68.9376 37.4083L63.1596 37.4083L63.1596 37.4083ZM56.2346 30.4843L64.1556 38.4053C65.2016 39.4513 66.8956 39.4513 67.9916 38.4053L75.9116 30.4843C77.6056 28.7903 76.4096 25.9013 74.0186 25.9013L58.2276 25.9013C55.7366 25.9013 54.5416 28.7903 56.2346 30.4843L56.2346 30.4843ZM69.6846 33.6722C69.6846 33.6722 69.5856 34.7683 67.6426 35.6153L69.6846 33.6722L69.6846 33.6722ZM72.6736 144.61C72.6736 144.61 70.2826 155.47 68.9876 157.661L72.6736 144.61L72.6736 144.61Z"/><path id="Forme" fill="#000" fill-rule="evenodd" stroke="none" d="M63.6606 37.9083L63.6606 36.9083C63.1355 36.9083 62.6987 37.3143 62.6606 37.8363L63.6606 37.9083L63.6606 37.9083ZM55.9382 143.959L54.941 143.827C54.927 144.174 54.967 144.521 55.0591 144.827L55.9382 143.959L55.9382 143.959ZM67.6959 166.379L67.2026 166.855C67.3035 167.187 67.5008 167.389 67.7116 167.379C67.9234 167.367 68.1129 167.147 68.2026 166.805L67.6959 166.379L67.6959 166.379ZM78.6516 143.148L79.5556 143.97C79.6316 143.658 79.6636 143.314 79.6476 142.97L78.6516 143.148L78.6516 143.148ZM68.9376 37.9083L69.9376 37.8183C69.8894 37.3023 69.4577 36.9083 68.9376 36.9083L68.9376 37.9083L68.9376 37.9083ZM64.8016 38.4053L63.8016 39.4053L63.8016 39.4053L64.8016 38.4053L64.8016 38.4053ZM67.9916 38.4053L68.9689 39.4053L68.9916 39.3804L67.9916 38.4053L67.9916 38.4053ZM75.9116 30.4843L76.9116 31.4843L76.9116 31.4843L75.9116 30.4843L75.9116 30.4843ZM56.8816 30.4843L55.8816 31.4843L55.8816 31.4843L56.8816 30.4843L56.8816 30.4843ZM70.1845 34.1722C70.2095 33.6686 70.0072 33.2218 69.7316 33.176C69.4561 33.1302 69.2116 33.5019 69.1866 34.0055L70.1845 34.1722L70.1845 34.1722ZM67.5711 35.1572C67.2098 35.2721 67.0441 35.5799 67.2026 35.844C67.3598 36.1081 67.7811 36.2291 68.1425 36.1133L67.5711 35.1572L67.5711 35.1572ZM73.1738 145.11C73.2335 144.667 73.0605 144.227 72.7884 144.13C72.5153 144.031 72.2453 144.313 72.1856 144.756L73.1738 145.11L73.1738 145.11ZM68.5629 157.407C68.4112 157.723 68.4962 158.128 68.7521 158.315C69.007 158.501 69.3371 158.396 69.4877 158.082L68.5629 157.407L68.5629 157.407ZM62.6606 37.3723L54.9396 143.827L55.9366 143.899L63.6576 37.4453L62.6606 37.3723L62.6606 37.3723ZM54.9986 144.101L67.2026 166.617L68.0826 166.141L55.8776 143.624L54.9986 144.101L54.9986 144.101ZM68.0946 166.592L79.1036 143.229L78.1996 142.803L67.1906 166.166L68.0946 166.592L68.0946 166.592ZM79.1496 142.97L69.4356 37.3633L68.4396 37.4543L78.1536 143.062L79.1496 142.97L79.1496 142.97ZM68.9376 36.9083L63.1596 36.9083L63.1596 37.9083L68.9376 37.9083L68.9376 36.9083L68.9376 36.9083ZM55.8816 30.8382L63.8016 38.7583L64.5096 38.0513L56.5886 30.1312L55.8816 30.8382L55.8816 30.8382ZM63.8016 38.7583C65.0476 40.0042 67.0516 39.9933 68.3366 38.7663L67.6466 38.0433C66.7386 38.9092 65.3556 38.8983 64.5096 38.0513L63.8016 38.7583L63.8016 38.7583ZM68.3446 38.7583L76.2656 30.8382L75.5586 30.1312L67.6376 38.0513L68.3446 38.7583L68.3446 38.7583ZM76.2656 30.8382C78.2736 28.8303 76.8566 25.4013 74.0186 25.4013L74.0186 26.4013C75.9636 26.4013 76.9376 28.7513 75.5586 30.1312L76.2656 30.8382L76.2656 30.8382ZM74.0186 25.4013L58.2276 25.4013L58.2276 26.4013L74.0186 26.4013L74.0186 25.4013L74.0186 25.4013ZM58.2276 25.4013C55.3096 25.4013 53.8596 28.8163 55.8816 30.8382L56.5886 30.1312C55.2226 28.7653 56.1636 26.4013 58.2276 26.4013L58.2276 25.4013L58.2276 25.4013ZM69.6846 33.6722C69.1866 33.6273 69.1876 33.6273 69.1876 33.6263C69.1876 33.6263 69.1876 33.6263 69.1876 33.6253C69.1876 33.6253 69.1876 33.6243 69.1876 33.6243C69.1876 33.6233 69.1876 33.6223 69.1876 33.6213C69.1876 33.6203 69.1876 33.6183 69.1886 33.6173C69.1886 33.6143 69.1886 33.6133 69.1886 33.6123C69.1886 33.6113 69.1886 33.6143 69.1876 33.6203C69.1846 33.6323 69.1786 33.6583 69.1656 33.6953C69.1406 33.7683 69.0886 33.8893 68.9836 34.0383C68.7756 34.3333 68.3426 34.7653 67.4426 35.1572L67.8426 36.0732C68.8856 35.6193 69.4736 35.0793 69.8006 34.6143C69.9636 34.3833 70.0576 34.1773 70.1126 34.0192C70.1396 33.9403 70.1556 33.8733 70.1666 33.8223C70.1716 33.7963 70.1756 33.7753 70.1786 33.7573C70.1796 33.7483 70.1806 33.7412 70.1816 33.7343C70.1816 33.7313 70.1816 33.7282 70.1826 33.7253C70.1826 33.7243 70.1826 33.7223 70.1826 33.7213C70.1826 33.7203 70.1826 33.7203 70.1826 33.7193C70.1826 33.7193 70.1826 33.7193 70.1826 33.7183C70.1826 33.7183 70.1826 33.7183 69.6846 33.6722L69.6846 33.6722ZM72.6736 144.61C72.1856 144.502 72.1856 144.502 72.1856 144.502C72.1856 144.503 72.1856 144.503 72.1856 144.503C72.1856 144.503 72.1856 144.504 72.1856 144.504C72.1846 144.506 72.1846 144.507 72.1836 144.51C72.1826 144.515 72.1806 144.523 72.1786 144.533C72.1746 144.553 72.1676 144.584 72.1586 144.624C72.1406 144.703 72.1146 144.821 72.0806 144.971C72.0136 145.271 71.9146 145.703 71.7926 146.228C71.5486 147.278 71.2106 148.7 70.8316 150.191C70.4526 151.682 70.0346 153.236 69.6316 154.551C69.2226 155.886 68.8456 156.918 68.5576 157.407L69.4176 157.916C69.7766 157.309 70.1846 156.162 70.5876 154.844C70.9976 153.506 71.4206 151.935 71.8006 150.437C72.1816 148.938 72.5226 147.509 72.7666 146.454C72.8896 145.927 72.9886 145.493 73.0566 145.191C73.0906 145.04 73.1166 144.922 73.1346 144.841C73.1436 144.801 73.1506 144.77 73.1556 144.749C73.1576 144.739 73.1596 144.731 73.1606 144.726C73.1606 144.723 73.1616 144.721 73.1616 144.72C73.1616 144.719 73.1616 144.718 73.1616 144.718C73.1626 144.718 73.1626 144.718 73.1626 144.718C73.1626 144.717 73.1626 144.717 72.6736 144.61L72.6736 144.61Z"/><path id="Forme" fill="#FFF" fill-rule="evenodd" stroke="#000" stroke-linecap="round" stroke-linejoin="round" stroke-width="1" d="M79.5486 114.721C79.7476 114.721 79.9966 114.771 80.1466 114.92C80.2956 115.12 80.1956 115.319 80.1466 115.518C79.2996 117.361 77.9046 119.055 76.2106 120.35C82.3376 120.201 88.5146 120.4 94.6426 120.998C95.2896 121.048 95.9376 121.147 96.4856 121.446C97.0336 121.745 97.4316 122.393 97.1326 122.891C96.9336 123.239 96.5356 123.389 96.1366 123.538C91.6036 125.083 86.4226 124.883 81.4416 124.634C88.1166 124.784 94.7916 124.883 101.467 125.929C102.314 126.079 103.41 126.428 103.36 127.175C103.36 127.872 102.364 128.121 101.567 128.171C95.1406 128.719 88.6646 129.068 82.1886 129.217C85.2276 129.765 88.2656 129.765 91.3046 130.114C94.3436 130.463 97.4816 131.21 99.8726 132.953C100.322 133.302 100.82 133.7 100.969 134.199C101.168 134.697 100.969 135.295 100.421 135.494C100.222 135.544 99.9726 135.544 99.7236 135.544C93.1976 135.344 86.6716 134.448 80.2956 132.854C83.3346 133.302 86.3236 134.099 89.3116 134.896C90.3586 135.195 91.6036 135.593 91.9026 136.54C92.1516 137.237 91.7036 137.935 91.0056 138.333C90.3586 138.732 89.5116 138.831 88.7146 138.881C83.6826 139.28 78.4526 138.283 73.8696 136.092C71.4286 134.946 69.1866 133.451 66.6466 132.505C64.6036 131.758 62.2626 131.309 60.8676 129.765C57.9786 126.527 61.3656 120.101 65.1516 118.806C67.3436 118.059 69.9346 118.308 72.2256 117.61C74.5666 116.913 76.7586 114.572 79.5486 114.721L79.5486 114.721L79.5486 114.721Z"/><path id="Forme" fill="#FFF" fill-rule="evenodd" stroke="#000" stroke-linecap="round" stroke-linejoin="round" stroke-width="1" d="M61.3166 114.671L65.9986 115.717C65.9986 115.717 63.6576 132.904 62.0136 133.95C60.3696 134.996 54.0926 130.463 54.0926 130.463L59.5726 114.273L61.3166 114.671L61.3166 114.671L61.3166 114.671Z"/><path id="Ovale" fill="#000" fill-rule="evenodd" stroke="none" d="M59.6224 131.758C59.6224 131.346 59.9569 131.011 60.3696 131.011C60.7823 131.011 61.1168 131.346 61.1168 131.758C61.1168 132.171 60.7823 132.505 60.3696 132.505C59.9569 132.505 59.6224 132.171 59.6224 131.758Z"/><path id="Forme" fill="#406946" fill-rule="evenodd" stroke="none" d="M39.6466 17.7823C39.6466 17.7823 3.7303 34.3703 3.6306 40.4973C3.5808 43.3373 -1.5003 129.217 0.442497 132.306C2.4351 135.394 53.2956 140.774 55.1396 139.479C56.9826 138.234 56.4346 128.171 65.9986 116.714C67.6426 114.771 28.6377 106.502 28.6377 106.502C28.6377 106.502 30.1819 79.0542 31.8756 61.9673"/><path id="Forme" fill="none" stroke="#000" stroke-linecap="round" stroke-linejoin="round" stroke-width="1" d="M39.6466 17.7823C39.6466 17.7823 3.7303 34.3703 3.6306 40.4973C3.5808 43.3373 -1.5003 129.217 0.442497 132.306C2.4351 135.394 53.2956 140.774 55.1396 139.479C56.9826 138.234 56.4346 128.171 65.9986 116.714C67.6426 114.771 28.6377 106.502 28.6377 106.502C28.6377 106.502 30.1819 79.0542 31.8756 61.9673"/><path id="Forme" fill="#406946" fill-rule="evenodd" stroke="none" d="M85.2776 15.6893C85.2776 15.6893 121.742 23.4113 125.229 30.1363C128.716 36.8613 143.959 103.264 148.642 107.05C153.325 110.836 166.575 125.979 166.575 125.979C166.575 125.979 136.935 147.001 132.253 140.675C127.57 134.348 110.434 110.836 106.897 83.0892"/><path id="Forme" fill="none" stroke="#000" stroke-linecap="round" stroke-linejoin="round" stroke-width="1" d="M85.2776 15.6893C85.2776 15.6893 121.742 23.4113 125.229 30.1363C128.716 36.8613 143.959 103.264 148.642 107.05C153.325 110.836 166.575 125.979 166.575 125.979C166.575 125.979 136.935 147.001 132.253 140.675C127.57 134.348 110.434 110.836 106.897 83.0892"/><path id="Forme" fill="#406946" fill-rule="evenodd" stroke="none" d="M133.399 89.9133C133.399 89.9133 135.64 96.5893 138.43 101.919L133.399 89.9133Z"/><path id="Forme" fill="none" stroke="#000" stroke-linecap="round" stroke-linejoin="round" stroke-width="1" d="M133.399 89.9133C133.399 89.9133 135.64 96.5893 138.43 101.919"/><path id="Forme" fill="#406946" fill-rule="evenodd" stroke="none" d="M13.0456 45.5283C13.0456 45.5283 9.6581 53.1003 12.4976 56.8863L13.0456 45.5283Z"/><path id="Forme" fill="none" stroke="#000" stroke-linecap="round" stroke-linejoin="round" stroke-width="1" d="M13.0456 45.5283C13.0456 45.5283 9.6581 53.1003 12.4976 56.8863"/><g id="Groupes" transform="translate(87.26959 60.273262)"><path id="Ligne" fill="none" fill-rule="evenodd" stroke="#000" stroke-linecap="round" stroke-linejoin="round" stroke-width="1" d="M2.98901 0L0 40.948"/></g><g id="Groupes" transform="translate(48.3646 51.008263)"><path id="Ligne" fill="none" fill-rule="evenodd" stroke="#000" stroke-linecap="round" stroke-linejoin="round" stroke-width="1" d="M0 0L4.134 55.493"/></g><path id="Forme" fill="#406946" fill-rule="evenodd" stroke="#000" stroke-linecap="round" stroke-linejoin="round" stroke-width="1" d="M50.5566 7.61926C50.5566 7.61926 38.2516 16.0873 38.5506 19.0273C38.8496 21.9663 48.9616 46.3752 48.9616 46.3752C48.9616 46.3752 56.6336 28.5413 58.0286 26.9973C59.3736 25.4533 50.5566 7.61926 50.5566 7.61926L50.5566 7.61926L50.5566 7.61926Z"/><path id="Forme" fill="#406946" fill-rule="evenodd" stroke="#000" stroke-linecap="round" stroke-linejoin="round" stroke-width="1" d="M77.2066 9.36326C77.2066 9.36326 78.8016 17.3833 72.2256 25.0043C72.2256 25.0043 76.7586 37.6572 80.4446 46.3252C80.4446 46.3252 90.9066 26.9973 91.1556 23.0623C91.3546 19.1763 77.2066 9.36326 77.2066 9.36326L77.2066 9.36326L77.2066 9.36326Z"/><path id="Forme" fill="#406946" fill-rule="evenodd" stroke="none" d="M49.7598 37.4092C49.7598 37.4092 48.1486 38.9033 49.0165 40.9953L49.7598 37.4092Z"/><path id="Forme" fill="none" stroke="#000" stroke-linecap="round" stroke-linejoin="round" stroke-width="1" d="M49.7598 37.4092C49.7598 37.4092 48.1486 38.9033 49.0165 40.9953"/><path id="Forme" fill="#406946" fill-rule="evenodd" stroke="none" d="M79.9966 39.2013C79.9966 39.2013 81.0531 40.5963 80.9942 41.8423L79.9966 39.2013Z"/><path id="Forme" fill="none" stroke="#000" stroke-linecap="round" stroke-linejoin="round" stroke-width="1" d="M79.9966 39.2013C79.9966 39.2013 81.0531 40.5963 80.9942 41.8423"/></g></g></g></g></g></g><path id="Forme" fill="#3A3A3A" fill-rule="evenodd" stroke="#000" stroke-linecap="round" stroke-linejoin="round" stroke-width="1" d="M95.0292 77.1056C95.0292 77.1056 87.4574 57.7277 86.76 29.383C86.0128 -1.05384 109.376 47.1171 109.376 47.1171C109.376 47.1171 102.352 56.5321 99.4628 57.1797L95.0292 77.1056L95.0292 77.1056L95.0292 77.1056Z"/><path id="Forme" fill="#3A3A3A" fill-rule="evenodd" stroke="#000" stroke-linecap="round" stroke-linejoin="round" stroke-width="1" d="M109.376 47.117C109.376 47.117 93.8835 29.1837 94.83 19.6691C95.7765 10.1544 143.947 13.492 148.979 9.95516C154.01 6.41831 150.872 16.2816 150.872 16.2816L153.91 14.04C153.91 14.04 157.397 13.8407 155.704 23.7539C154.01 33.667 157.397 25.9955 157.397 25.9955C157.397 25.9955 161.781 26.7926 159.838 39.7942C157.298 56.5818 152.914 57.5283 152.914 57.5283C152.914 57.5283 148.979 59.0726 144.495 54.0911C140.012 49.1096 127.608 62.1611 109.376 47.117L109.376 47.117L109.376 47.117Z"/><path id="Forme" fill="#3A3A3A" fill-rule="evenodd" stroke="none" d="M155.255 28.7354C155.255 28.7354 154.359 46.0211 142.403 50.9029L155.255 28.7354Z"/><path id="Forme" fill="none" stroke="#000" stroke-linecap="round" stroke-linejoin="round" stroke-width="1" d="M155.255 28.7354C155.255 28.7354 154.359 46.0211 142.403 50.9029"/><path id="Forme" fill="#3A3A3A" fill-rule="evenodd" stroke="none" d="M150.872 16.3315C150.872 16.3315 149.327 29.4328 144.993 33.5177C144.993 33.5177 144.296 50.654 133.935 53.1447"/><path id="Forme" fill="none" stroke="#000" stroke-linecap="round" stroke-linejoin="round" stroke-width="1" d="M150.872 16.3315C150.872 16.3315 149.327 29.4328 144.993 33.5177C144.993 33.5177 144.296 50.654 133.935 53.1447"/><path id="Forme" fill="#3A3A3A" fill-rule="evenodd" stroke="none" d="M148.979 9.95508C148.979 9.95508 145.99 26.9419 139.066 31.4253C139.066 31.4253 134.333 51.9988 121.68 52.6464"/><path id="Forme" fill="none" stroke="#000" stroke-linecap="round" stroke-linejoin="round" stroke-width="1" d="M148.979 9.95508C148.979 9.95508 145.99 26.9419 139.066 31.4253C139.066 31.4253 134.333 51.9988 121.68 52.6464"/><path id="Forme" fill="#3A3A3A" fill-rule="evenodd" stroke="none" d="M142.353 11.3501C142.353 11.3501 140.759 23.206 132.341 28.7355C132.341 28.7355 126.861 49.6577 116.798 51.1521"/><path id="Forme" fill="none" stroke="#000" stroke-linecap="round" stroke-linejoin="round" stroke-width="1" d="M142.353 11.3501C142.353 11.3501 140.759 23.206 132.341 28.7355C132.341 28.7355 126.861 49.6577 116.798 51.1521"/><path id="Forme" fill="#3A3A3A" fill-rule="evenodd" stroke="none" d="M109.376 47.117C109.376 47.117 122.826 40.5913 124.32 27.8885C124.32 27.8885 136.276 16.5307 132.889 11.9478"/><path id="Forme" fill="none" stroke="#000" stroke-linecap="round" stroke-linejoin="round" stroke-width="1" d="M109.376 47.117C109.376 47.117 122.826 40.5913 124.32 27.8885C124.32 27.8885 136.276 16.5307 132.889 11.9478"/><path id="Forme" fill="none" stroke="#000" stroke-linecap="round" stroke-linejoin="round" stroke-width="1" d="M124.32 12.3462C125.466 24.7999 105.042 41.6373 105.042 41.6373C105.042 41.6373 103.199 49.1593 98.0679 52.6464C98.0679 52.6464 97.5697 51.5006 93.1362 71.1277"/><path id="Forme" fill="none" stroke="#000" stroke-linecap="round" stroke-linejoin="round" stroke-width="1" d="M118.741 12.7446C116.798 21.1633 101.953 37.2037 101.953 37.2037C101.953 37.2037 91.4924 51.0024 91.7414 66.6941"/><path id="Forme" fill="none" stroke="#000" stroke-linecap="round" stroke-linejoin="round" stroke-width="1" d="M112.514 13.1934C104.245 20.1674 99.2136 32.92 99.2136 32.92C99.2136 32.92 90.3963 36.8056 88.603 50.7039"/><path id="Forme" fill="none" stroke="#000" stroke-linecap="round" stroke-linejoin="round" stroke-width="1" d="M95.9259 26.0455C95.9259 26.0455 87.8559 24.8001 87.9555 46.0212"/><path id="Forme" fill="none" stroke="#000" stroke-linecap="round" stroke-linejoin="round" stroke-width="1" d="M147.285 55.187C147.285 55.187 157.298 51.4509 160.237 36.0581"/><path id="Forme" fill="#3A3A3A" fill-rule="evenodd" stroke="#000" stroke-linecap="round" stroke-linejoin="round" stroke-width="1" d="M153.362 66.2461C153.362 66.2461 167.36 47.715 160.436 37.3037C160.436 37.3037 153.811 52.0987 147.285 55.1374C147.285 55.1374 150.473 58.1263 152.964 58.8735L153.362 66.2461L153.362 66.2461L153.362 66.2461Z"/><path id="Forme" fill="#FFF" fill-rule="evenodd" stroke="none" d="M94.7303 73.4691C94.7303 73.4691 90.3964 70.6794 91.2433 77.2052C92.0901 83.7309 96.0255 88.5132 98.3668 85.2752"/><path id="Forme" fill="none" stroke="#000" stroke-linecap="round" stroke-linejoin="round" stroke-width="1" d="M94.7303 73.4691C94.7303 73.4691 90.3964 70.6794 91.2433 77.2052C92.0901 83.7309 96.0255 88.5132 98.3668 85.2752"/><path id="Forme" fill="#FFF" fill-rule="evenodd" stroke="none" d="M152.914 66.5447C152.914 66.5447 156.8 63.1573 156.899 69.7328C156.999 76.3084 153.811 81.5888 150.971 78.7493"/><path id="Forme" fill="none" stroke="#000" stroke-linecap="round" stroke-linejoin="round" stroke-width="1" d="M152.914 66.5447C152.914 66.5447 156.8 63.1573 156.899 69.7328C156.999 76.3084 153.811 81.5888 150.971 78.7493"/><path id="Forme" fill="#FFF" fill-rule="evenodd" stroke="#000" stroke-width="1" d="M94.8298 76.4581C94.8298 76.4581 100.359 93.694 103.697 98.3268C107.084 102.96 129.7 115.463 131.792 114.218C133.885 112.972 148.331 102.461 153.362 91.552C153.362 91.552 154.558 73.4692 153.362 66.9435L152.914 57.6281C152.914 57.6281 144.495 55.0377 142.453 50.9031C142.453 50.9031 125.815 58.724 109.376 47.167C109.376 47.167 103.946 55.3864 99.4626 57.2296L94.8298 76.4581L94.8298 76.4581L94.8298 76.4581Z"/><path id="Forme" fill="#3A3A3A" fill-rule="evenodd" stroke="#000" stroke-linecap="round" stroke-linejoin="round" stroke-width="1" d="M95.0291 73.5188C97.4202 77.1553 107.234 92.6975 110.522 94.3912C114.108 96.2343 120.684 94.8893 125.516 90.1071C130.746 84.8765 137.422 88.0647 140.211 90.1071C143.001 92.1495 146.488 92.299 150.174 86.8193C154.907 79.7954 153.611 67.4414 153.96 75.063C153.86 76.8065 153.761 79.646 153.711 81.3895C153.512 83.3323 153.96 87.6662 153.91 90.1569C153.86 95.3875 150.224 98.9243 147.086 102.86C144.944 105.55 142.503 107.991 139.763 109.983C138.368 111.029 136.874 111.976 135.329 112.773C134.084 113.42 132.39 114.616 130.946 114.566C129.601 114.516 128.007 113.719 126.711 113.321C125.167 112.773 123.623 112.175 122.128 111.527C119.09 110.232 116.151 108.738 113.361 107.094C109.774 104.952 106.088 102.461 103.448 99.2232C103.149 98.8745 102.8 98.2269 102.651 97.7786L100.16 90.9539C99.0143 87.8156 97.8685 84.7271 96.7228 81.5888C96.125 79.9449 95.5273 78.3508 94.9295 76.7069C94.7302 76.2088 94.2321 73.469 95.0291 73.5188L95.0291 73.5188L95.0291 73.5188Z"/><path id="Forme" fill="#FFF" fill-rule="evenodd" stroke="#000" stroke-linecap="round" stroke-linejoin="round" stroke-width="1" d="M124.968 93.8432C124.968 93.8432 131.942 89.2104 137.671 92.9963C137.671 92.9963 137.073 96.7324 131.743 94.7897C131.743 94.7897 128.056 97.8782 124.968 93.8432L124.968 93.8432L124.968 93.8432Z"/><path id="Forme" fill="#000" fill-rule="evenodd" stroke="#000" stroke-linecap="round" stroke-linejoin="round" stroke-width="1" d="M135.329 66.495C135.329 66.495 134.632 64.3031 135.529 64.4028C136.475 64.5024 143.499 63.4065 145.99 66.5946C146.04 66.5946 136.874 63.6555 135.329 66.495L135.329 66.495L135.329 66.495Z"/><path id="Forme" fill="#000" fill-rule="evenodd" stroke="#000" stroke-linecap="round" stroke-linejoin="round" stroke-width="1" d="M121.132 68.139C121.132 68.139 121.83 65.9472 120.933 66.0468C119.987 66.1464 112.963 65.0505 110.472 68.2386C110.472 68.1888 119.638 65.2498 121.132 68.139L121.132 68.139L121.132 68.139Z"/><path id="Ovale" fill="#000" fill-rule="evenodd" stroke="#000" stroke-linecap="round" stroke-linejoin="round" stroke-width="1" d="M115.951 76.9558C115.951 74.8649 117.044 73.1699 118.392 73.1699C119.74 73.1699 120.833 74.8649 120.833 76.9558C120.833 79.0467 119.74 80.7417 118.392 80.7417C117.044 80.7417 115.951 79.0467 115.951 76.9558Z"/><path id="Ovale" fill="#000" fill-rule="evenodd" stroke="#000" stroke-linecap="round" stroke-linejoin="round" stroke-width="1" d="M137.72 75.8103C137.72 73.7194 138.813 72.0244 140.161 72.0244C141.509 72.0244 142.602 73.7194 142.602 75.8103C142.602 77.9012 141.509 79.5962 140.161 79.5962C138.813 79.5962 137.72 77.9012 137.72 75.8103Z"/><path id="Forme" fill="#3A3A3A" fill-rule="evenodd" stroke="none" d="M143.35 100.668C143.35 100.668 142.503 101.963 142.054 102.461L143.35 100.668Z"/><path id="Forme" fill="none" stroke="#000" stroke-linecap="round" stroke-linejoin="round" stroke-width="1" d="M143.35 100.668C143.35 100.668 142.503 101.963 142.054 102.461"/><path id="Forme" fill="none" stroke="#000" stroke-linecap="round" stroke-linejoin="round" stroke-width="1" d="M316.406 249.066C316.406 249.066 319.495 251.856 319.196 255.243"/><path id="Forme" fill="#3A3A3A" fill-rule="evenodd" stroke="#000" stroke-linecap="round" stroke-linejoin="round" stroke-width="1" d="M326.818 261.321L9.04883 261.321L9.04883 253.5C9.04883 248.07 13.4325 243.687 18.8623 243.687L316.855 243.687C322.384 243.687 326.818 248.17 326.818 253.649L326.818 261.321L326.818 261.321L326.818 261.321Z"/><path id="Forme" fill="#FFF" fill-rule="evenodd" stroke="none" d="M244.723 237.36L238.496 237.36L238.496 240.697L244.723 240.697L244.723 237.36L244.723 237.36ZM110.173 237.459L103.946 237.459L103.946 240.797L110.173 240.797L110.173 237.459L110.173 237.459ZM112.315 237.459L118.542 237.459L118.542 240.797L112.315 240.797L112.315 237.459L112.315 237.459ZM126.861 237.459L120.634 237.459L120.634 240.797L126.861 240.797L126.861 237.459L126.861 237.459ZM128.953 237.459L135.18 237.459L135.18 240.797L128.953 240.797L128.953 237.459L128.953 237.459ZM137.272 237.459L194.659 237.459L194.659 240.797L137.272 240.797L137.272 237.459L137.272 237.459ZM221.808 237.459L228.035 237.459L228.035 240.797L221.808 240.797L221.808 237.459L221.808 237.459ZM219.716 237.459L213.489 237.459L213.489 240.797L219.716 240.797L219.716 237.459L219.716 237.459ZM205.17 237.459L211.397 237.459L211.397 240.797L205.17 240.797L205.17 237.459L205.17 237.459ZM230.127 237.36L236.354 237.36L236.354 240.697L230.127 240.697L230.127 237.36L230.127 237.36ZM203.028 237.459L196.801 237.459L196.801 240.797L203.028 240.797L203.028 237.459L203.028 237.459Z"/><path id="Forme" fill="#000" fill-rule="evenodd" stroke="none" d="M238.996 237.86L238.996 236.86C238.444 236.86 237.996 237.308 237.996 237.86L238.996 237.86L238.996 237.86ZM244.723 237.86L245.723 237.86C245.723 237.308 245.275 236.86 244.723 236.86L244.723 237.86L244.723 237.86ZM238.996 240.697L237.996 240.697C237.996 241.251 238.444 241.697 238.996 241.697L238.996 240.697L238.996 240.697ZM244.723 240.697L244.723 241.697C245.275 241.697 245.723 241.251 245.723 240.697L244.723 240.697L244.723 240.697ZM104.446 237.959L104.446 236.959C103.894 236.959 103.446 237.407 103.446 237.959L104.446 237.959L104.446 237.959ZM110.173 237.959L111.173 237.959C111.173 237.407 110.725 236.959 110.173 236.959L110.173 237.959L110.173 237.959ZM104.446 240.797L103.446 240.797C103.446 241.349 103.894 241.797 104.446 241.797L104.446 240.797L104.446 240.797ZM110.173 240.797L110.173 241.797C110.725 241.797 111.173 241.349 111.173 240.797L110.173 240.797L110.173 240.797ZM118.542 237.959L119.542 237.959C119.542 237.407 119.094 236.959 118.542 236.959L118.542 237.959L118.542 237.959ZM112.815 237.959L112.815 236.959C112.263 236.959 111.815 237.407 111.815 237.959L112.815 237.959L112.815 237.959ZM118.542 240.797L118.542 241.797C119.094 241.797 119.542 241.349 119.542 240.797L118.542 240.797L118.542 240.797ZM112.815 240.797L111.815 240.797C111.815 241.349 112.263 241.797 112.815 241.797L112.815 240.797L112.815 240.797ZM121.134 237.959L121.134 236.959C120.582 236.959 120.134 237.407 120.134 237.959L121.134 237.959L121.134 237.959ZM126.861 237.959L127.861 237.959C127.861 237.407 127.413 236.959 126.861 236.959L126.861 237.959L126.861 237.959ZM121.134 240.797L120.134 240.797C120.134 241.349 120.582 241.797 121.134 241.797L121.134 240.797L121.134 240.797ZM126.861 240.797L126.861 241.797C127.413 241.797 127.861 241.349 127.861 240.797L126.861 240.797L126.861 240.797ZM135.18 237.959L136.18 237.959C136.18 237.407 135.732 236.959 135.18 236.959L135.18 237.959L135.18 237.959ZM129.453 237.959L129.453 236.959C128.901 236.959 128.453 237.407 128.453 237.959L129.453 237.959L129.453 237.959ZM135.18 240.797L135.18 241.797C135.732 241.797 136.18 241.349 136.18 240.797L135.18 240.797L135.18 240.797ZM129.453 240.797L128.453 240.797C128.453 241.349 128.901 241.797 129.453 241.797L129.453 240.797L129.453 240.797ZM194.659 237.959L195.659 237.959C195.659 237.407 195.211 236.959 194.659 236.959L194.659 237.959L194.659 237.959ZM137.772 237.959L137.772 236.959C137.22 236.959 136.772 237.407 136.772 237.959L137.772 237.959L137.772 237.959ZM194.659 240.797L194.659 241.797C195.211 241.797 195.659 241.349 195.659 240.797L194.659 240.797L194.659 240.797ZM137.772 240.797L136.772 240.797C136.772 241.349 137.22 241.797 137.772 241.797L137.772 240.797L137.772 240.797ZM228.035 237.959L229.035 237.959C229.035 237.407 228.587 236.959 228.035 236.959L228.035 237.959L228.035 237.959ZM222.308 237.959L222.308 236.959C221.756 236.959 221.308 237.407 221.308 237.959L222.308 237.959L222.308 237.959ZM228.035 240.797L228.035 241.797C228.587 241.797 229.035 241.349 229.035 240.797L228.035 240.797L228.035 240.797ZM222.308 240.797L221.308 240.797C221.308 241.349 221.756 241.797 222.308 241.797L222.308 240.797L222.308 240.797ZM213.989 237.959L213.989 236.959C213.437 236.959 212.989 237.407 212.989 237.959L213.989 237.959L213.989 237.959ZM219.716 237.959L220.716 237.959C220.716 237.407 220.268 236.959 219.716 236.959L219.716 237.959L219.716 237.959ZM213.989 240.797L212.989 240.797C212.989 241.349 213.437 241.797 213.989 241.797L213.989 240.797L213.989 240.797ZM219.716 240.797L219.716 241.797C220.268 241.797 220.716 241.349 220.716 240.797L219.716 240.797L219.716 240.797ZM211.397 237.959L212.397 237.959C212.397 237.407 211.949 236.959 211.397 236.959L211.397 237.959L211.397 237.959ZM205.67 237.959L205.67 236.959C205.118 236.959 204.67 237.407 204.67 237.959L205.67 237.959L205.67 237.959ZM211.397 240.797L211.397 241.797C211.949 241.797 212.397 241.349 212.397 240.797L211.397 240.797L211.397 240.797ZM205.67 240.797L204.67 240.797C204.67 241.349 205.118 241.797 205.67 241.797L205.67 240.797L205.67 240.797ZM236.354 237.86L237.354 237.86C237.354 237.308 236.906 236.86 236.354 236.86L236.354 237.86L236.354 237.86ZM230.627 237.86L230.627 236.86C230.075 236.86 229.627 237.308 229.627 237.86L230.627 237.86L230.627 237.86ZM236.354 240.697L236.354 241.697C236.906 241.697 237.354 241.251 237.354 240.697L236.354 240.697L236.354 240.697ZM230.627 240.697L229.627 240.697C229.627 241.251 230.075 241.697 230.627 241.697L230.627 240.697L230.627 240.697ZM197.301 237.959L197.301 236.959C196.749 236.959 196.301 237.407 196.301 237.959L197.301 237.959L197.301 237.959ZM203.028 237.959L204.028 237.959C204.028 237.407 203.58 236.959 203.028 236.959L203.028 237.959L203.028 237.959ZM197.301 240.797L196.301 240.797C196.301 241.349 196.749 241.797 197.301 241.797L197.301 240.797L197.301 240.797ZM203.028 240.797L203.028 241.797C203.58 241.797 204.028 241.349 204.028 240.797L203.028 240.797L203.028 240.797ZM238.496 237.86L244.723 237.86L244.723 236.86L238.496 236.86L238.496 237.86L238.496 237.86ZM238.996 240.697L238.996 237.36L237.996 237.36L237.996 240.697L238.996 240.697L238.996 240.697ZM244.723 240.197L238.496 240.197L238.496 241.197L244.723 241.197L244.723 240.197L244.723 240.197ZM244.223 237.36L244.223 240.697L245.223 240.697L245.223 237.36L244.223 237.36L244.223 237.36ZM103.946 237.959L110.173 237.959L110.173 236.959L103.946 236.959L103.946 237.959L103.946 237.959ZM104.446 240.797L104.446 237.459L103.446 237.459L103.446 240.797L104.446 240.797L104.446 240.797ZM110.173 240.297L103.946 240.297L103.946 241.297L110.173 241.297L110.173 240.297L110.173 240.297ZM109.673 237.459L109.673 240.797L110.673 240.797L110.673 237.459L109.673 237.459L109.673 237.459ZM118.542 236.959L112.315 236.959L112.315 237.959L118.542 237.959L118.542 236.959L118.542 236.959ZM119.042 240.797L119.042 237.459L118.042 237.459L118.042 240.797L119.042 240.797L119.042 240.797ZM112.315 241.297L118.542 241.297L118.542 240.297L112.315 240.297L112.315 241.297L112.315 241.297ZM111.815 237.459L111.815 240.797L112.815 240.797L112.815 237.459L111.815 237.459L111.815 237.459ZM120.634 237.959L126.861 237.959L126.861 236.959L120.634 236.959L120.634 237.959L120.634 237.959ZM121.134 240.797L121.134 237.459L120.134 237.459L120.134 240.797L121.134 240.797L121.134 240.797ZM126.861 240.297L120.634 240.297L120.634 241.297L126.861 241.297L126.861 240.297L126.861 240.297ZM126.361 237.459L126.361 240.797L127.361 240.797L127.361 237.459L126.361 237.459L126.361 237.459ZM135.18 236.959L128.953 236.959L128.953 237.959L135.18 237.959L135.18 236.959L135.18 236.959ZM135.68 240.797L135.68 237.459L134.68 237.459L134.68 240.797L135.68 240.797L135.68 240.797ZM128.953 241.297L135.18 241.297L135.18 240.297L128.953 240.297L128.953 241.297L128.953 241.297ZM128.453 237.459L128.453 240.797L129.453 240.797L129.453 237.459L128.453 237.459L128.453 237.459ZM194.659 236.959L137.272 236.959L137.272 237.959L194.659 237.959L194.659 236.959L194.659 236.959ZM195.159 240.797L195.159 237.459L194.159 237.459L194.159 240.797L195.159 240.797L195.159 240.797ZM137.272 241.297L194.659 241.297L194.659 240.297L137.272 240.297L137.272 241.297L137.272 241.297ZM136.772 237.459L136.772 240.797L137.772 240.797L137.772 237.459L136.772 237.459L136.772 237.459ZM228.035 236.959L221.808 236.959L221.808 237.959L228.035 237.959L228.035 236.959L228.035 236.959ZM228.535 240.797L228.535 237.459L227.535 237.459L227.535 240.797L228.535 240.797L228.535 240.797ZM221.808 241.297L228.035 241.297L228.035 240.297L221.808 240.297L221.808 241.297L221.808 241.297ZM221.308 237.459L221.308 240.797L222.308 240.797L222.308 237.459L221.308 237.459L221.308 237.459ZM213.489 237.959L219.716 237.959L219.716 236.959L213.489 236.959L213.489 237.959L213.489 237.959ZM213.989 240.797L213.989 237.459L212.989 237.459L212.989 240.797L213.989 240.797L213.989 240.797ZM219.716 240.297L213.489 240.297L213.489 241.297L219.716 241.297L219.716 240.297L219.716 240.297ZM219.216 237.459L219.216 240.797L220.216 240.797L220.216 237.459L219.216 237.459L219.216 237.459ZM211.397 236.959L205.17 236.959L205.17 237.959L211.397 237.959L211.397 236.959L211.397 236.959ZM211.897 240.797L211.897 237.459L210.897 237.459L210.897 240.797L211.897 240.797L211.897 240.797ZM205.17 241.297L211.397 241.297L211.397 240.297L205.17 240.297L205.17 241.297L205.17 241.297ZM204.67 237.459L204.67 240.797L205.67 240.797L205.67 237.459L204.67 237.459L204.67 237.459ZM236.354 236.86L230.127 236.86L230.127 237.86L236.354 237.86L236.354 236.86L236.354 236.86ZM236.854 240.697L236.854 237.36L235.854 237.36L235.854 240.697L236.854 240.697L236.854 240.697ZM230.127 241.197L236.354 241.197L236.354 240.197L230.127 240.197L230.127 241.197L230.127 241.197ZM229.627 237.36L229.627 240.697L230.627 240.697L230.627 237.36L229.627 237.36L229.627 237.36ZM196.801 237.959L203.028 237.959L203.028 236.959L196.801 236.959L196.801 237.959L196.801 237.959ZM197.301 240.797L197.301 237.459L196.301 237.459L196.301 240.797L197.301 240.797L197.301 240.797ZM203.028 240.297L196.801 240.297L196.801 241.297L203.028 241.297L203.028 240.297L203.028 240.297ZM202.528 237.459L202.528 240.797L203.528 240.797L203.528 237.459L202.528 237.459L202.528 237.459Z"/><path id="Forme" fill="#FFF" fill-rule="evenodd" stroke="#000" stroke-linecap="round" stroke-linejoin="round" stroke-width="1" d="M251.498 243.786L98.0679 243.786C97.2709 243.786 96.6731 243.139 96.6731 242.391L96.6731 240.05C96.6731 239.253 97.3207 238.655 98.0679 238.655L251.498 238.655C252.295 238.655 252.892 239.303 252.892 240.05L252.892 242.391C252.942 243.188 252.295 243.786 251.498 243.786L251.498 243.786L251.498 243.786Z"/><path id="Forme" fill="#E2E2E2" fill-rule="evenodd" stroke="#000" stroke-width="1" d="M239.293 233.474L108.28 233.474C103.498 233.474 99.6121 229.589 99.6121 224.807L99.6121 144.356C99.6121 139.574 103.498 135.688 108.28 135.688L239.243 135.688C244.025 135.688 247.911 139.574 247.911 144.356L247.911 224.807C247.961 229.589 244.075 233.474 239.293 233.474L239.293 233.474L239.293 233.474Z"/><path id="Ovale" fill="#FFF" fill-rule="evenodd" stroke="#000" stroke-linecap="round" stroke-linejoin="round" stroke-width="1" d="M172.142 184.606C172.142 182.212 173.257 180.272 174.633 180.272C176.009 180.272 177.124 182.212 177.124 184.606C177.124 187 176.009 188.94 174.633 188.94C173.257 188.94 172.142 187 172.142 184.606Z"/><path id="Forme" fill="none" stroke="#000" stroke-linecap="round" stroke-linejoin="round" stroke-width="1" d="M178.369 185.702C178.369 185.702 178.917 188.84 176.626 190.136"/><path id="Forme" fill="#E2E2E2" fill-rule="evenodd" stroke="none" d="M163.027 243.687L186.589 243.687L186.308 240.598L197.15 240.598L197.15 244.035L152.516 244.035L152.516 240.598L163.33 240.598L163.027 243.687L163.027 243.687ZM163.33 240.598L165.667 216.836L184.148 216.836L186.308 240.598L163.33 240.598L163.33 240.598Z"/><path id="Forme" fill="#000" fill-rule="evenodd" stroke="none" d="M186.589 243.725L186.589 244.641L187.589 244.641L187.499 243.641L186.589 243.725L186.589 243.725ZM163.475 243.727L162.573 243.638L162.475 244.638L163.475 244.638L163.475 243.727L163.475 243.727ZM197.15 241.098L198.15 241.098L198.15 240.098L197.15 240.098L197.15 241.098L197.15 241.098ZM197.15 244.035L197.15 245.035L198.15 245.035L198.15 244.035L197.15 244.035L197.15 244.035ZM153.016 244.035L152.016 244.035L152.016 245.035L153.016 245.035L153.016 244.035L153.016 244.035ZM153.016 241.098L153.016 240.098L152.016 240.098L152.016 241.098L153.016 241.098L153.016 241.098ZM166.169 217.336L166.169 216.336L165.257 216.336L165.169 217.238L166.169 217.336L166.169 217.336ZM184.148 217.336L185.148 217.246L185.066 216.336L184.148 216.336L184.148 217.336L184.148 217.336ZM186.589 243.187L163.027 243.187L163.027 244.187L186.589 244.187L186.589 243.187L186.589 243.187ZM185.81 240.643L186.091 243.732L187.087 243.641L186.806 240.553L185.81 240.643L185.81 240.643ZM186.308 241.098L197.15 241.098L197.15 240.098L186.308 240.098L186.308 241.098L186.308 241.098ZM196.65 240.598L196.65 244.035L197.65 244.035L197.65 240.598L196.65 240.598L196.65 240.598ZM197.15 243.535L152.516 243.535L152.516 244.535L197.15 244.535L197.15 243.535L197.15 243.535ZM153.016 244.035L153.016 240.598L152.016 240.598L152.016 244.035L153.016 244.035L153.016 244.035ZM152.516 241.098L163.33 241.098L163.33 240.098L152.516 240.098L152.516 241.098L152.516 241.098ZM163.524 243.736L163.828 240.647L162.833 240.549L162.529 243.638L163.524 243.736L163.524 243.736ZM163.828 240.647L166.164 216.885L165.169 216.787L162.833 240.549L163.828 240.647L163.828 240.647ZM165.667 217.336L184.148 217.336L184.148 216.336L165.667 216.336L165.667 217.336L165.667 217.336ZM183.65 216.882L185.81 240.643L186.806 240.553L184.646 216.791L183.65 216.882L183.65 216.882ZM163.33 241.098L186.308 241.098L186.308 240.098L163.33 240.098L163.33 241.098L163.33 241.098Z"/><path id="Forme" fill="#E2E2E2" fill-rule="evenodd" stroke="#000" stroke-width="1" d="M51.4413 233.475L51.4413 233.475C45.8122 233.475 41.2292 238.058 41.2292 243.687L41.2292 243.687L61.205 243.687L61.205 243.288C61.2548 237.858 56.8711 233.475 51.4413 233.475L51.4413 233.475L51.4413 233.475Z"/><path id="Rectangle" fill="#F4F4F5" fill-rule="evenodd" stroke="#000" stroke-linecap="round" stroke-linejoin="round" stroke-width=".5" d="M50.5945 233.524L52.1886 233.524L52.1886 237.061L50.5945 237.061L50.5945 233.524Z"/><path id="Forme" fill="none" stroke="#000" stroke-linecap="round" stroke-linejoin="round" stroke-width=".5" d="M45.6626 235.268C45.6626 235.268 51.3913 242.292 57.12 235.268"/><path id="Forme" fill="none" stroke="#000" stroke-linecap="round" stroke-linejoin="round" stroke-width=".5" d="M50.5945 240.598C50.5945 240.598 47.6056 242.64 50.5945 242.342C53.5834 241.993 63.5962 238.855 68.7769 240.598C73.9577 242.342 92.3891 241.196 92.3891 241.196"/><path id="Forme" fill="none" stroke="#000" stroke-linecap="round" stroke-linejoin="round" stroke-width="2" d="M272.17 39.6948C272.17 39.6948 283.329 38.2502 289.307 49.3589"/><path id="Forme" fill="#000" fill-rule="evenodd" stroke="#000" stroke-linecap="round" stroke-linejoin="round" stroke-width="1" d="M286.467 51.4012L291.349 52.1484L292.096 47.2666C291.598 47.5655 286.467 51.4012 286.467 51.4012L286.467 51.4012L286.467 51.4012Z"/><path id="Forme" fill="none" stroke="#000" stroke-linecap="round" stroke-linejoin="round" stroke-width="2" d="M264.449 107.194C264.449 107.194 253.291 108.638 247.313 97.5298"/><path id="Forme" fill="#000" fill-rule="evenodd" stroke="#000" stroke-linecap="round" stroke-linejoin="round" stroke-width="1" d="M250.551 96.1848L245.769 94.9395L244.523 99.7217C245.071 99.5224 250.551 96.1848 250.551 96.1848L250.551 96.1848L250.551 96.1848Z"/><path id="Forme" fill="#FFF" fill-rule="evenodd" stroke="#000" stroke-linecap="round" stroke-linejoin="round" stroke-width="1" d="M282.034 104.554C282.034 104.554 267.089 100.619 274.014 87.0192C280.938 73.3699 289.506 80.8422 289.506 80.8422C289.506 80.8422 281.087 61.9125 301.86 58.5749C322.583 55.2872 319.794 75.8109 319.794 75.8109C319.794 75.8109 329.707 67.9899 335.286 75.8109C340.865 83.6318 338.076 86.8199 338.076 86.8199C338.076 86.8199 347.441 82.7351 351.127 87.3679C354.863 92.0505 356.906 99.1242 351.127 102.312C345.349 105.451 282.034 104.554 282.034 104.554L282.034 104.554L282.034 104.554Z"/><path id="Forme" fill="#000" fill-rule="evenodd" stroke="none" d="M319.335 90.2855L320.335 91.2855L319.335 90.2855L319.335 90.2855ZM319.648 88.8718L318.648 89.8718L319.648 88.8718L319.648 88.8718ZM313.022 96.8363L312.022 95.8363L312.022 95.8363L313.022 96.8363L313.022 96.8363ZM311.296 96.8363L312.296 95.8363L311.296 96.8363L311.296 96.8363ZM311.335 95.1103L312.335 96.1103L312.335 96.1103L311.335 95.1103L311.335 95.1103ZM317.96 88.8336L318.96 89.8336L317.96 88.8336L317.96 88.8336ZM306.397 88.8336L305.397 89.8336L306.397 88.8336L306.397 88.8336ZM304.671 88.8718L305.671 89.8718L305.671 89.8718L304.671 88.8718L304.671 88.8718ZM312.71 95.3843L313.71 94.3843L312.71 95.3843L312.71 95.3843ZM312.748 96.524L313.748 97.524L313.748 97.524L312.748 96.524L312.748 96.524ZM311.647 96.5622L310.647 97.5622L310.647 97.5622L311.647 96.5622L311.647 96.5622ZM304.709 90.5596L305.709 89.5596L304.709 90.5596L304.709 90.5596ZM314.271 79.8955C314.271 78.7909 313.376 77.8955 312.271 77.8955L312.271 79.8955L314.271 79.8955L314.271 79.8955ZM314.271 94.8399L314.271 79.8955L312.271 79.8955L312.271 94.8399L314.271 94.8399L314.271 94.8399ZM312.271 96.8399C313.376 96.8399 314.271 95.9445 314.271 94.8399L312.271 94.8399L312.271 96.8399L312.271 96.8399ZM310.271 94.8399C310.271 95.9445 311.167 96.8399 312.271 96.8399L312.271 94.8399L310.271 94.8399L310.271 94.8399ZM310.271 79.8955L310.271 94.8399L312.271 94.8399L312.271 79.8955L310.271 79.8955L310.271 79.8955ZM312.271 77.8955C311.167 77.8955 310.271 78.7909 310.271 79.8955L312.271 79.8955L312.271 77.8955L312.271 77.8955ZM320.023 91.0115C320.825 90.2518 320.859 88.986 320.1 88.1841L318.648 89.5596L320.023 91.0115L320.023 91.0115ZM313.398 97.2882L320.023 91.0115L318.648 89.5596L312.022 95.8363L313.398 97.2882L313.398 97.2882ZM310.57 97.2117C311.33 98.0136 312.596 98.0478 313.398 97.2882L312.022 95.8363L312.022 95.8363L310.57 97.2117L310.57 97.2117ZM310.647 94.3843C309.845 95.144 309.811 96.4099 310.57 97.2117L312.022 95.8363L312.022 95.8363L310.647 94.3843L310.647 94.3843ZM317.272 88.1077L310.647 94.3843L312.022 95.8363L318.648 89.5596L317.272 88.1077L317.272 88.1077ZM320.1 88.1841C319.34 87.3822 318.074 87.348 317.272 88.1077L318.648 89.5596L320.1 88.1841L320.1 88.1841ZM306.772 88.1077C305.971 87.348 304.705 87.3822 303.945 88.1841L305.397 89.5596L305.397 89.5596L306.772 88.1077L306.772 88.1077ZM313.398 94.3843L306.772 88.1077L305.397 89.5596L312.022 95.8363L313.398 94.3843L313.398 94.3843ZM313.474 97.2117C314.234 96.4099 314.2 95.144 313.398 94.3843L312.022 95.8363L312.022 95.8363L313.474 97.2117L313.474 97.2117ZM310.647 97.2882C311.449 98.0478 312.715 98.0136 313.474 97.2117L312.022 95.8363L312.022 95.8363L310.647 97.2882L310.647 97.2882ZM304.021 91.0115L310.647 97.2882L312.022 95.8363L305.397 89.5596L304.021 91.0115L304.021 91.0115ZM303.945 88.1841C303.185 88.986 303.22 90.2518 304.021 91.0115L305.397 89.5596L303.945 88.1841L303.945 88.1841Z"/><path id="Forme" fill="#E0E0E0" fill-rule="evenodd" stroke="#000" stroke-linecap="round" stroke-linejoin="round" stroke-width="1" d="M227.088 56.7315L261.112 56.7315L264.449 32.6211L229.131 32.6211L227.088 56.7315L227.088 56.7315Z"/><path id="Rectangle" fill="#FFF" fill-rule="evenodd" stroke="#000" stroke-linecap="round" stroke-linejoin="round" stroke-width="1" d="M225.095 24.8999L257.076 24.8999L257.076 54.3903L225.095 54.3903L225.095 24.8999Z"/><path id="Forme" fill="#FFF" fill-rule="evenodd" stroke="#000" stroke-linecap="round" stroke-linejoin="round" stroke-width="1" d="M227.454 23.9399L259.381 25.8292L257.638 55.2695L225.712 53.3802L227.454 23.9399L227.454 23.9399Z"/><path id="Forme" fill="#FFF" fill-rule="evenodd" stroke="#000" stroke-linecap="round" stroke-linejoin="round" stroke-width="1" d="M230.827 23.3706L262.658 26.463L259.807 55.8148L227.976 52.7224L230.827 23.3706L230.827 23.3706Z"/><path id="Forme" fill="#E5E5E5" fill-rule="evenodd" stroke="#000" stroke-linecap="round" stroke-linejoin="round" stroke-width="1" d="M261.112 56.7317L225.992 56.7317L223.75 31.3262L259.019 31.3262L261.112 56.7317L261.112 56.7317Z"/><path id="Forme" fill="#000" fill-rule="evenodd" stroke="none" d="M242.983 41.2304L241.983 42.2304L242.983 41.2304L242.983 41.2304ZM241.874 40.345L242.874 41.345L241.874 40.345L241.874 40.345ZM243.979 50.3465L242.979 51.3465L243.979 50.3465L243.979 50.3465ZM243.979 51.4551L242.979 50.4551L242.979 50.4551L243.979 51.4551L243.979 51.4551ZM241.985 51.4551L242.985 50.4551L241.985 51.4551L241.985 51.4551ZM240.989 42.339L241.989 41.339L240.989 42.339L240.989 42.339ZM242.828 41.4073L243.828 42.4073L243.828 42.4073L242.828 41.4073L242.828 41.4073ZM243.082 39.9953L242.082 40.9953L242.082 40.9953L243.082 39.9953L243.082 39.9953ZM239.092 45.5917L240.092 46.5917L240.092 46.5917L239.092 45.5917L239.092 45.5917ZM237.68 45.9257L238.68 44.9257L238.68 44.9257L237.68 45.9257L237.68 45.9257ZM237.854 44.5937L236.854 43.5937L236.854 43.5937L237.854 44.5937L237.854 44.5937ZM241.59 40.4092L240.59 39.4092L241.59 40.4092L241.59 40.4092ZM242.699 40.1674L243.699 39.1674L242.699 40.1674L242.699 40.1674ZM241.508 40.5072L240.508 39.5072L241.508 40.5072L241.508 40.5072ZM247.466 43.3915L246.466 44.3915L247.466 43.3915L247.466 43.3915ZM247.466 45.1785L246.466 44.1785L247.466 45.1785L247.466 45.1785ZM246.232 44.9654L245.232 45.9654L245.232 45.9654L246.232 44.9654L246.232 44.9654ZM241.465 41.7413L242.465 40.7413L241.465 41.7413L241.465 41.7413ZM243.971 41.1218C243.851 40.0237 242.863 39.2309 241.765 39.3509L241.983 41.339L243.971 41.1218L243.971 41.1218ZM244.967 50.2379L243.971 41.1218L241.983 41.339L242.979 50.4551L244.967 50.2379L244.967 50.2379ZM243.196 52.4433C244.294 52.3233 245.087 51.3359 244.967 50.2379L242.979 50.4551L242.979 50.4551L243.196 52.4433L243.196 52.4433ZM240.991 50.6724C241.111 51.7705 242.098 52.5633 243.196 52.4433L242.979 50.4551L242.979 50.4551L240.991 50.6724L240.991 50.6724ZM239.995 41.5563L240.991 50.6724L242.979 50.4551L241.983 41.339L239.995 41.5563L239.995 41.5563ZM241.765 39.3509C240.667 39.4709 239.875 40.4583 239.995 41.5563L241.983 41.339L241.765 39.3509L241.765 39.3509ZM243.574 42.0733C244.31 41.2493 244.238 39.985 243.414 39.2494L242.082 40.7413L242.082 40.7413L243.574 42.0733L243.574 42.0733ZM239.838 46.2577L243.574 42.0733L242.082 40.7413L238.346 44.9257L239.838 46.2577L239.838 46.2577ZM237.014 46.4176C237.838 47.1532 239.102 47.0817 239.838 46.2577L238.346 44.9257L238.346 44.9257L237.014 46.4176L237.014 46.4176ZM236.854 43.5937C236.119 44.4176 236.19 45.6819 237.014 46.4176L238.346 44.9257L238.346 44.9257L236.854 43.5937L236.854 43.5937ZM240.59 39.4092L236.854 43.5937L238.346 44.9257L242.082 40.7413L240.59 39.4092L240.59 39.4092ZM243.414 39.2494C242.59 38.5137 241.326 38.5853 240.59 39.4092L242.082 40.7413L242.082 40.7413L243.414 39.2494L243.414 39.2494ZM243.316 39.1674C242.447 38.4858 241.19 38.638 240.508 39.5072L242.082 40.7413L243.316 39.1674L243.316 39.1674ZM247.7 42.6046L243.316 39.1674L242.082 40.7413L246.466 44.1785L247.7 42.6046L247.7 42.6046ZM248.04 45.4125C248.721 44.5433 248.569 43.2862 247.7 42.6046L246.466 44.1785L248.04 45.4125L248.04 45.4125ZM245.232 45.7524C246.101 46.4339 247.358 46.2818 248.04 45.4125L246.466 44.1785L245.232 45.7524L245.232 45.7524ZM240.848 42.3151L245.232 45.7524L246.466 44.1785L242.082 40.7413L240.848 42.3151L240.848 42.3151ZM240.508 39.5072C239.827 40.3764 239.979 41.6336 240.848 42.3151L242.082 40.7413L240.508 39.5072L240.508 39.5072Z"/><path id="Forme" fill="#F4F4F5" fill-rule="evenodd" stroke="#000" stroke-linecap="round" stroke-linejoin="round" stroke-width="1" d="M236.852 73.1211L231.721 68.4883L231.721 73.1211L236.852 73.1211L236.852 73.1211Z"/><path id="Forme" fill="none" stroke="#000" stroke-linecap="round" stroke-linejoin="round" stroke-width="1" d="M210.5 83.1837C210.948 82.4863 211.048 81.5896 210.699 80.8424C209.703 81.8387 209.305 83.4327 209.703 84.7777C210.45 84.4788 211.098 83.8811 211.496 83.1836C211.845 83.4825 212.044 83.8811 211.994 84.3294C212.493 84.0305 212.991 83.6818 213.439 83.2335C213.788 83.5822 214.087 83.9807 214.435 84.3294C214.585 84.1301 214.784 83.9807 214.934 83.7814C215.432 84.5785 216.378 85.1762 217.275 84.977C218.172 84.7777 218.769 83.5323 218.172 82.7851C217.574 82.5859 216.926 83.1836 216.976 83.8312C217.026 84.4788 217.673 84.9272 218.271 84.8773C218.869 84.8275 219.417 84.3792 219.616 83.7814C219.716 84.2297 220.015 84.6781 220.363 84.977C220.712 84.6781 221.061 84.3792 221.409 84.0803C221.659 84.9272 223.103 85.0268 223.502 84.2297C223.502 84.6781 224.05 84.977 224.498 84.8275C224.946 84.7279 225.245 84.3792 225.544 84.0305C226.142 84.6781 227.337 84.7279 227.935 84.0305C228.035 83.9309 228.085 83.8312 228.085 83.7316C228.085 83.5822 227.885 83.4825 227.736 83.4825C227.238 83.3331 226.59 83.4825 226.341 83.9309C226.042 84.6283 226.939 85.3755 227.686 85.1762C228.433 84.977 228.832 84.1799 229.031 83.4825C229.38 82.1873 229.28 80.8423 228.732 79.597C228.483 79.049 228.035 78.501 227.437 78.6007C226.989 79.3479 226.69 80.1449 226.54 80.9918"/><path id="Forme" fill="none" stroke="#000" stroke-linecap="round" stroke-linejoin="round" stroke-width="1" d="M210.998 90.9546C211.148 90.6059 211.297 90.307 211.247 89.9085C211.197 89.5598 210.849 89.2111 210.5 89.3107C210.301 89.3605 210.201 89.51 210.052 89.6594C209.553 90.307 209.105 91.0542 208.856 91.8015C208.756 92.1004 208.657 92.4491 208.806 92.6981C209.105 93.2461 210.002 92.9472 210.55 92.6981C211.148 92.4491 212.144 92.5985 212.044 93.1963C212.493 92.7978 212.941 92.3992 213.389 92.0505C213.738 92.4491 214.037 92.9472 214.186 93.4454C214.734 93.0468 215.282 92.5985 215.83 92.2C215.83 92.7978 216.328 93.3457 216.926 93.3955C217.524 93.4454 218.122 92.9472 218.221 92.3992C217.922 93.0468 218.769 93.6944 219.417 93.545C220.114 93.3955 220.562 92.7479 220.961 92.2C220.463 91.652 219.367 92.3494 219.516 93.0468C219.666 93.794 220.612 94.1428 221.31 93.794C222.007 93.4453 222.306 92.6483 222.356 91.9011C222.007 92.2996 221.907 92.9472 222.206 93.4454C222.954 93.3955 223.651 93.1963 224.348 92.8974C224.149 93.2959 224.398 93.794 224.847 93.9435C225.245 94.0929 225.693 94.0431 226.142 93.9435C227.038 93.7941 228.035 93.5948 228.583 92.8476C229.429 93.3457 229.828 94.3918 229.778 95.3881C229.728 96.3844 229.28 97.2811 228.732 98.0781C228.234 98.8253 227.188 99.4729 226.59 98.8253C226.441 98.6261 226.391 98.4268 226.341 98.1778C225.743 95.0394 227.586 91.6022 230.476 90.307C230.675 90.2074 230.924 90.1576 231.073 90.2572C231.273 90.3568 231.223 90.7055 231.024 90.7055"/><path id="Forme" fill="none" stroke="#000" stroke-linecap="round" stroke-linejoin="round" stroke-width="1" d="M211.446 100.171C211.446 99.7223 211.446 99.274 211.446 98.8256C211.048 98.5766 210.45 98.8755 210.251 99.3238C210.052 99.7721 210.101 100.27 210.201 100.768C210.201 100.918 210.251 101.067 210.4 101.117C210.5 101.167 210.649 101.167 210.749 101.117C211.397 100.868 211.994 100.47 212.443 99.9216C212.542 99.8219 212.642 99.6725 212.791 99.6725C213.09 99.6725 213.19 100.071 213.339 100.32C213.588 100.719 214.236 100.768 214.684 100.519C215.133 100.27 215.382 99.8219 215.631 99.4234C215.631 100.021 216.079 100.569 216.677 100.719C217.275 100.868 217.922 100.519 218.171 99.9714C218.67 100.569 219.616 100.719 220.264 100.27C220.562 100.071 220.911 99.6725 221.26 99.7721C221.509 99.8219 221.708 100.071 221.957 100.121C222.455 100.22 222.854 99.523 223.302 99.7223C223.601 99.8718 223.651 100.27 223.9 100.47C224.398 100.868 225.145 100.071 225.743 100.37C225.893 100.47 225.992 100.569 226.142 100.719C226.839 101.267 227.835 100.619 228.483 100.021"/><path id="Forme" fill="#F4F4F5" fill-rule="evenodd" stroke="#000" stroke-linecap="round" stroke-linejoin="round" stroke-width="1" d="M230.575 70.68L224.946 66.5952L225.444 71.228L230.575 70.68L230.575 70.68Z"/><path id="Forme" fill="none" stroke="#000" stroke-linecap="round" stroke-linejoin="round" stroke-width="1" d="M205.469 83.5322C205.867 82.785 205.817 81.8883 205.419 81.1909C204.522 82.2868 204.323 83.8809 204.871 85.1761C205.568 84.7776 206.166 84.13 206.465 83.3828C206.814 83.6318 207.063 84.0304 207.112 84.4787C207.611 84.13 208.009 83.6817 208.408 83.2333C208.756 83.582 209.155 83.8809 209.504 84.2296C209.653 84.0304 209.802 83.8311 209.952 83.6318C210.5 84.3791 211.546 84.8772 212.393 84.5285C213.29 84.2296 213.688 82.9344 213.04 82.2868C212.443 82.1872 211.845 82.8348 211.944 83.4326C212.044 84.0304 212.742 84.4289 213.339 84.3292C213.937 84.2296 214.435 83.6816 214.585 83.0839C214.734 83.5322 215.033 83.9307 215.432 84.1798C215.73 83.8311 216.079 83.5322 216.378 83.1835C216.727 84.0304 218.171 83.9307 218.47 83.0839C218.52 83.5322 219.118 83.7314 219.516 83.582C219.915 83.4326 220.214 83.034 220.463 82.6355C221.11 83.2333 222.306 83.1337 222.854 82.3865C222.904 82.2868 223.003 82.1872 222.954 82.0876C222.904 81.9381 222.754 81.8883 222.605 81.8385C222.057 81.7389 221.459 81.9381 221.26 82.4363C221.011 83.1337 222.007 83.7813 222.705 83.4824C223.402 83.1835 223.751 82.3865 223.85 81.6392C224.05 80.344 223.8 78.9492 223.103 77.8533C222.804 77.3552 222.256 76.857 221.708 77.0064C221.36 77.7537 221.11 78.6005 221.061 79.4474"/><path id="Forme" fill="none" stroke="#000" stroke-linecap="round" stroke-linejoin="round" stroke-width="1" d="M206.764 91.2038C206.863 90.8551 207.013 90.5064 206.913 90.1577C206.814 89.809 206.465 89.5101 206.116 89.6595C205.967 89.7093 205.817 89.9086 205.718 90.058C205.269 90.7554 204.921 91.5027 204.771 92.3495C204.721 92.6484 204.672 92.9971 204.821 93.2462C205.22 93.7941 206.017 93.3956 206.565 93.0469C207.113 92.6982 208.159 92.748 208.109 93.3956C208.507 92.9473 208.906 92.5488 209.304 92.1004C209.703 92.4492 210.052 92.8975 210.251 93.3956C210.749 92.8975 211.247 92.4492 211.745 91.951C211.795 92.5488 212.393 93.0469 212.991 93.0469C213.588 93.0469 214.136 92.499 214.136 91.9012C213.887 92.5488 214.834 93.1466 215.481 92.8975C216.129 92.6484 216.528 92.0008 216.826 91.3532C216.278 90.8551 215.282 91.6521 215.481 92.3495C215.681 93.0469 216.727 93.296 217.325 92.8975C217.972 92.499 218.221 91.6521 218.122 90.9049C217.823 91.3532 217.823 92.0008 218.122 92.4492C218.819 92.2997 219.516 92.0507 220.164 91.7019C219.965 92.1005 220.313 92.5986 220.762 92.6982C221.16 92.7979 221.609 92.6982 222.057 92.5986C222.954 92.3495 223.9 92.0008 224.348 91.2536C225.245 91.7019 225.743 92.6484 225.793 93.6447C225.843 94.641 225.494 95.5875 225.046 96.4343C224.647 97.2314 223.651 98.0284 223.003 97.3808C222.854 97.2314 222.754 96.9823 222.705 96.783C221.808 93.6945 223.203 90.1078 225.992 88.5138C226.192 88.4141 226.391 88.3145 226.59 88.3643C226.789 88.464 226.789 88.8127 226.59 88.8127"/><path id="Forme" fill="none" stroke="#000" stroke-linecap="round" stroke-linejoin="round" stroke-width="1" d="M208.258 100.37C208.208 99.9212 208.158 99.4729 208.109 99.0245C207.66 98.8253 207.112 99.174 206.963 99.6223C206.813 100.071 206.913 100.569 207.062 101.067C207.112 101.216 207.162 101.366 207.262 101.416C207.361 101.465 207.511 101.416 207.61 101.366C208.258 101.067 208.806 100.569 209.205 99.971C209.304 99.8216 209.404 99.6721 209.553 99.6721C209.852 99.6223 210.002 100.021 210.151 100.22C210.45 100.619 211.098 100.569 211.496 100.27C211.895 99.971 212.144 99.5227 212.343 99.0744C212.393 99.6722 212.941 100.17 213.538 100.22C214.136 100.27 214.734 99.9212 214.933 99.3234C215.481 99.8714 216.428 99.9212 217.025 99.4231C217.324 99.174 217.573 98.7755 217.972 98.8253C218.221 98.8751 218.42 99.0744 218.719 99.1242C219.217 99.174 219.566 98.4268 220.014 98.5762C220.313 98.6759 220.413 99.1242 220.662 99.2736C221.21 99.6223 221.858 98.7257 222.455 98.9747C222.605 99.0246 222.754 99.174 222.854 99.2736C223.601 99.7718 224.548 98.9747 225.095 98.3271"/></g></svg>